<svg width="317" height="47" viewBox="0 0 317 47" fill="none" xmlns="http://www.w3.org/2000/svg">
<path d="M22.5979 1.85411C23.1966 0.0114865 25.8034 0.0114813 26.4021 1.8541L30.6741 15.002C30.9419 15.8261 31.7098 16.384 32.5762 16.384H46.4008C48.3382 16.384 49.1438 18.8632 47.5764 20.002L36.3921 28.1279C35.6911 28.6372 35.3978 29.5399 35.6655 30.364L39.9375 43.5119C40.5363 45.3545 38.4273 46.8868 36.8599 45.748L25.6756 37.6221C24.9746 37.1128 24.0254 37.1128 23.3244 37.6221L12.1401 45.748C10.5727 46.8868 8.46374 45.3545 9.06245 43.5119L13.3345 30.364C13.6022 29.5399 13.3089 28.6372 12.6079 28.1279L1.42363 20.002C-0.143794 18.8632 0.661754 16.384 2.5992 16.384H16.4238C17.2902 16.384 18.0581 15.8261 18.3259 15.002L22.5979 1.85411Z" fill="#FFD336"/>
<path d="M89.5979 1.85411C90.1966 0.0114865 92.8034 0.0114813 93.4021 1.8541L97.6741 15.002C97.9419 15.8261 98.7098 16.384 99.5762 16.384H113.401C115.338 16.384 116.144 18.8632 114.576 20.002L103.392 28.1279C102.691 28.6372 102.398 29.5399 102.666 30.364L106.938 43.5119C107.536 45.3545 105.427 46.8868 103.86 45.748L92.6756 37.6221C91.9746 37.1128 91.0254 37.1128 90.3244 37.6221L79.1401 45.748C77.5727 46.8868 75.4637 45.3545 76.0624 43.5119L80.3345 30.364C80.6022 29.5399 80.3089 28.6372 79.6079 28.1279L68.4236 20.002C66.8562 18.8632 67.6618 16.384 69.5992 16.384H83.4238C84.2902 16.384 85.0581 15.8261 85.3259 15.002L89.5979 1.85411Z" fill="#FFD336"/>
<path d="M156.598 1.85411C157.197 0.0114865 159.803 0.0114813 160.402 1.8541L164.674 15.002C164.942 15.8261 165.71 16.384 166.576 16.384H180.401C182.338 16.384 183.144 18.8632 181.576 20.002L170.392 28.1279C169.691 28.6372 169.398 29.5399 169.666 30.364L173.938 43.5119C174.536 45.3545 172.427 46.8868 170.86 45.748L159.676 37.6221C158.975 37.1128 158.025 37.1128 157.324 37.6221L146.14 45.748C144.573 46.8868 142.464 45.3545 143.062 43.5119L147.334 30.364C147.602 29.5399 147.309 28.6372 146.608 28.1279L135.424 20.002C133.856 18.8632 134.662 16.384 136.599 16.384H150.424C151.29 16.384 152.058 15.8261 152.326 15.002L156.598 1.85411Z" fill="#FFD336"/>
<path d="M223.598 1.85411C224.197 0.0114865 226.803 0.0114813 227.402 1.8541L231.674 15.002C231.942 15.8261 232.71 16.384 233.576 16.384H247.401C249.338 16.384 250.144 18.8632 248.576 20.002L237.392 28.1279C236.691 28.6372 236.398 29.5399 236.666 30.364L240.938 43.5119C241.536 45.3545 239.427 46.8868 237.86 45.748L226.676 37.6221C225.975 37.1128 225.025 37.1128 224.324 37.6221L213.14 45.748C211.573 46.8868 209.464 45.3545 210.062 43.5119L214.334 30.364C214.602 29.5399 214.309 28.6372 213.608 28.1279L202.424 20.002C200.856 18.8632 201.662 16.384 203.599 16.384H217.424C218.29 16.384 219.058 15.8261 219.326 15.002L223.598 1.85411Z" fill="#C4C4C4"/>
<path d="M290.598 1.85411C291.197 0.0114865 293.803 0.0114813 294.402 1.8541L298.674 15.002C298.942 15.8261 299.71 16.384 300.576 16.384H314.401C316.338 16.384 317.144 18.8632 315.576 20.002L304.392 28.1279C303.691 28.6372 303.398 29.5399 303.666 30.364L307.938 43.5119C308.536 45.3545 306.427 46.8868 304.86 45.748L293.676 37.6221C292.975 37.1128 292.025 37.1128 291.324 37.6221L280.14 45.748C278.573 46.8868 276.464 45.3545 277.062 43.5119L281.334 30.364C281.602 29.5399 281.309 28.6372 280.608 28.1279L269.424 20.002C267.856 18.8632 268.662 16.384 270.599 16.384H284.424C285.29 16.384 286.058 15.8261 286.326 15.002L290.598 1.85411Z" fill="#C4C4C4"/>
</svg>
